<svg height="512" viewBox="0 0 64 64" width="512" xmlns="http://www.w3.org/2000/svg"><path d="m61 10h-58a2 2 0 0 0 -2 2v40a2 2 0 0 0 2 2h58a2 2 0 0 0 2-2v-40a2 2 0 0 0 -2-2zm0 2v33.587l-21.293-21.294a1 1 0 0 0 -1.414 0l-9.293 9.293-5.293-5.293a1 1 0 0 0 -1.414 0l-19.293 19.293v-35.586zm-58 40v-1.586l20-20 11.293 11.293a1 1 0 0 0 1.414-1.414l-5.293-5.293 8.586-8.586 22 22v3.586z"/><path d="m37.707 42.293a1 1 0 0 0 -1.414 1.414l1 1a1 1 0 0 0 1.414-1.414z"/><path d="m23 25a5 5 0 1 0 -5-5 5.006 5.006 0 0 0 5 5zm0-8a3 3 0 1 1 -3 3 3 3 0 0 1 3-3z"/><path d="m45 16h1a1 1 0 0 0 0-2h-1a1 1 0 0 0 0 2z"/><path d="m49 16h9a1 1 0 0 0 0-2h-9a1 1 0 0 0 0 2z"/></svg>